<?xml version="1.0" encoding="UTF-8" standalone="no"?>
<!-- Created with Inkscape (http://www.inkscape.org/) -->

<svg
   xmlns:dc="http://purl.org/dc/elements/1.1/"
   xmlns:cc="http://creativecommons.org/ns#"
   xmlns:rdf="http://www.w3.org/1999/02/22-rdf-syntax-ns#"
   xmlns:svg="http://www.w3.org/2000/svg"
   xmlns="http://www.w3.org/2000/svg"
   xmlns:sodipodi="http://sodipodi.sourceforge.net/DTD/sodipodi-0.dtd"
   xmlns:inkscape="http://www.inkscape.org/namespaces/inkscape"
   width="55.17392mm"
   height="60.061127mm"
   viewBox="0 0 195.49814 212.81501"
   id="svg2"
   version="1.1"
   inkscape:version="0.91 r13725"
   sodipodi:docname="loading.svg">
  <defs
     id="defs4" />
  <sodipodi:namedview
     id="base"
     pagecolor="#ffffff"
     bordercolor="#666666"
     borderopacity="1.0"
     inkscape:pageopacity="0"
     inkscape:pageshadow="2"
     inkscape:zoom="2.8"
     inkscape:cx="84.783464"
     inkscape:cy="130.86468"
     inkscape:document-units="px"
     inkscape:current-layer="layer1"
     showgrid="false"
     inkscape:window-width="1366"
     inkscape:window-height="705"
     inkscape:window-x="-8"
     inkscape:window-y="-8"
     inkscape:window-maximized="1"
     fit-margin-top="0"
     fit-margin-left="0"
     fit-margin-right="0"
     fit-margin-bottom="0" />
  <metadata
     id="metadata7">
    <rdf:RDF>
      <cc:Work
         rdf:about="">
        <dc:format>image/svg+xml</dc:format>
        <dc:type
           rdf:resource="http://purl.org/dc/dcmitype/StillImage" />
        <dc:title />
      </cc:Work>
    </rdf:RDF>
  </metadata>
  <g
     inkscape:label="Layer 1"
     inkscape:groupmode="layer"
     id="layer1"
     transform="translate(-226.57795,-99.081993)">
    <ellipse
       style="fill:none;fill-opacity:1;stroke:none;stroke-width:8.60759735;stroke-linecap:round;stroke-miterlimit:4;stroke-dasharray:none;stroke-opacity:0.21568627"
       id="path3340"
       cx="270.21579"
       cy="143.47745"
       rx="43.637836"
       ry="44.395454" />
    <path
       style="fill:none;fill-opacity:1;stroke:none;stroke-width:4.04061031;stroke-linecap:round;stroke-miterlimit:4;stroke-dasharray:none;stroke-opacity:0.21568627"
       d="m 262.36191,122.39325 0.14456,-4.92449 1.89403,-0.46788 1.89404,-0.46789 0,-2.94138 c 0,-2.60466 -0.11564,-2.94138 -1.01015,-2.94138 -0.90802,0 -1.01016,-0.33672 -1.01016,-3.33028 0,-2.90551 0.12885,-3.36397 1.01016,-3.59444 0.6537,-0.17095 1.01015,-0.68893 1.01015,-1.46795 0,-1.16132 0.13361,-1.20378 3.78807,-1.20378 3.65446,0 3.78807,0.0425 3.78807,1.20378 0,0.77902 0.35645,1.297 1.01016,1.46795 0.88131,0.23047 1.01015,0.68893 1.01015,3.59444 0,2.99356 -0.10214,3.33028 -1.01015,3.33028 -0.89625,0 -1.01016,0.33672 -1.01016,2.98606 l 0,2.98607 1.89404,0.31885 1.89404,0.31885 -0.15982,5.02884 -0.15981,5.02885 -7.56089,0 -7.56089,0 0.14456,-4.9245 z"
       id="path3361"
       inkscape:connector-curvature="0" />
    <path
       style="fill:none;fill-opacity:1;stroke:none;stroke-width:5.71400023;stroke-linecap:round;stroke-miterlimit:4;stroke-dasharray:none;stroke-opacity:0.21568627"
       d="m 262.34423,168.74776 c -7.22099,-2.22323 -14.31871,-9.11851 -16.86172,-16.38078 -0.81828,-2.33683 -1.24683,-5.67025 -1.23971,-9.64286 0.009,-5.28416 0.29583,-6.67345 2.20828,-10.71428 2.42115,-5.11565 6.94406,-10.07832 11.13281,-12.21526 l 2.71522,-1.38521 0,5.74954 0,5.74953 9.46429,-0.1993 9.46428,-0.1993 0.20862,-5.53572 c 0.11474,-3.04464 0.4536,-5.53571 0.75301,-5.53571 1.38602,0 7.21089,4.37619 9.91722,7.45075 8.10084,9.20304 8.34811,23.97616 0.57177,34.16052 -2.83547,3.71351 -8.24726,7.3876 -12.97934,8.81175 -3.37136,1.01464 -8.43979,1.18272 -12.53932,0.52399 -1.01068,-0.1624 -1.96246,-0.37505 -2.81541,-0.63766 z"
       id="path3363"
       inkscape:connector-curvature="0"
       sodipodi:nodetypes="sscsscccccsssssss" />
    <ellipse
       style="fill:none;fill-opacity:1;stroke:none;stroke-width:4;stroke-linecap:round;stroke-miterlimit:4;stroke-dasharray:none;stroke-opacity:1"
       id="path4137"
       cx="324.43509"
       cy="204.03986"
       rx="92.14286"
       ry="93.571426" />
    <ellipse
       style="fill:none;fill-opacity:1;stroke:none;stroke-width:5.81939793;stroke-linecap:round;stroke-miterlimit:4;stroke-dasharray:none;stroke-opacity:1"
       id="path4139"
       cx="324.43509"
       cy="200.46843"
       rx="31.233158"
       ry="31.947443" />
    <g
       id="g4139"
       style="fill:none">
      <rect
         y="105.16331"
         x="306.62997"
         height="72.39595"
         width="35.610241"
         id="rect4141"
         style="fill:none;fill-opacity:1;stroke:none;stroke-width:4.10404396;stroke-linecap:round;stroke-miterlimit:4;stroke-dasharray:none;stroke-opacity:1" />
    </g>
    <rect
       style="fill:none;fill-opacity:1;stroke:none;stroke-width:4;stroke-linecap:round;stroke-miterlimit:4;stroke-dasharray:none;stroke-opacity:1"
       id="rect4160"
       width="20.357143"
       height="59.285713"
       x="314.79224"
       y="110.11129" />
    <path
       style="fill:#cccccc;fill-opacity:1;stroke:none;stroke-width:1.42857146;stroke-linecap:round;stroke-miterlimit:4;stroke-dasharray:none;stroke-opacity:1"
       d="M 92.035478,196.13561 C 75.055267,195.05602 58.481656,188.90242 44.565824,178.51064 29.029712,166.9089 17.498118,150.45517 11.883968,131.87891 7.4926123,117.34866 6.7681533,100.98785 9.8523697,85.998314 14.13961,65.161985 25.901437,46.119978 42.712035,32.799605 53.645664,24.136023 67.105681,17.910273 80.584849,15.282048 c 2.547522,-0.496725 4.791518,-0.903138 4.986665,-0.903138 0.23186,0 0.354807,9.382553 0.354807,27.077138 l 0,27.077137 -1.908032,0.790836 c -4.811983,1.994454 -10.960572,7.120543 -14.114318,11.767129 -2.271179,3.34625 -4.219093,7.667825 -5.264943,11.680618 -0.777411,2.982817 -0.9321,4.366053 -0.938597,8.392852 -0.0086,5.31037 0.463625,8.0865 2.171304,12.76565 5.328818,14.60132 20.453804,24.04066 35.621375,22.23094 12.18767,-1.45418 22.09583,-8.64709 27.347,-19.8528 2.44,-5.20683 2.92796,-7.64836 2.95521,-14.78664 0.0209,-5.462717 -0.0798,-6.629392 -0.79912,-9.261849 -1.64941,-6.036303 -4.71605,-11.363557 -9.07662,-15.767589 -2.59445,-2.620311 -8.02051,-6.426993 -10.17421,-7.137782 l -1.17619,-0.388175 0,-27.284805 0,-27.284802 1.16071,0.205845 c 20.15664,3.574654 36.52262,12.205162 50.44945,26.604244 14.16673,14.647121 23.14209,34.150182 25.20258,54.764111 0.9453,9.457212 -0.0163,22.421822 -2.34414,31.605192 -8.87587,35.01511 -37.3774,61.58502 -72.40803,67.50078 -3.60958,0.60956 -14.398129,1.55337 -15.810572,1.38315 -0.196429,-0.0237 -2.349093,-0.16969 -4.7837,-0.32448 z"
       id="path4162"
       inkscape:connector-curvature="0"
       transform="translate(226.57795,99.081985)" />
  </g>
</svg>
